<svg width="1920" height="1080" viewBox="0 0 1920 1080" fill="none" xmlns="http://www.w3.org/2000/svg">
<rect x="0.000244141" width="1920" height="1080" fill="url(#paint0_linear_108_117)" style="mix-blend-mode:darken"/>
<line x1="1920" y1="23" y2="23" stroke="#818181" stroke-opacity="0.08" stroke-width="2"/>
<line x1="1920" y1="60" y2="60" stroke="#818181" stroke-opacity="0.05" stroke-width="2"/>
<line x1="1920" y1="97" y2="97" stroke="#818181" stroke-opacity="0.08" stroke-width="2"/>
<line x1="1920" y1="134" y2="134" stroke="#818181" stroke-opacity="0.05" stroke-width="2"/>
<line x1="1920" y1="171" y2="171" stroke="#818181" stroke-opacity="0.08" stroke-width="2"/>
<line x1="1920" y1="208" y2="208" stroke="#818181" stroke-opacity="0.05" stroke-width="2"/>
<line x1="1920" y1="245" y2="245" stroke="#818181" stroke-opacity="0.08" stroke-width="2"/>
<line x1="1920" y1="282" y2="282" stroke="#818181" stroke-opacity="0.05" stroke-width="2"/>
<line x1="1920" y1="319" y2="319" stroke="#818181" stroke-opacity="0.08" stroke-width="2"/>
<line x1="1920" y1="356" y2="356" stroke="#818181" stroke-opacity="0.05" stroke-width="2"/>
<line x1="1920" y1="393" x2="-3.05176e-05" y2="393" stroke="#818181" stroke-opacity="0.08" stroke-width="2"/>
<line x1="1920" y1="430" x2="-3.05176e-05" y2="430" stroke="#818181" stroke-opacity="0.05" stroke-width="2"/>
<line x1="1920" y1="467" x2="-3.05176e-05" y2="467" stroke="#818181" stroke-opacity="0.08" stroke-width="2"/>
<line x1="1920" y1="504" x2="-3.05176e-05" y2="504" stroke="#818181" stroke-opacity="0.05" stroke-width="2"/>
<line x1="1920" y1="541" x2="-3.05176e-05" y2="541" stroke="#818181" stroke-opacity="0.08" stroke-width="2"/>
<line x1="1920" y1="578" x2="-3.05176e-05" y2="578" stroke="#818181" stroke-opacity="0.05" stroke-width="2"/>
<line x1="1920" y1="615" x2="-3.05176e-05" y2="615" stroke="#818181" stroke-opacity="0.08" stroke-width="2"/>
<line x1="1920" y1="652" x2="-3.05176e-05" y2="652" stroke="#818181" stroke-opacity="0.05" stroke-width="2"/>
<line x1="1920" y1="689" x2="-3.05176e-05" y2="689" stroke="#818181" stroke-opacity="0.08" stroke-width="2"/>
<line x1="1920" y1="726" x2="-3.05176e-05" y2="726" stroke="#818181" stroke-opacity="0.05" stroke-width="2"/>
<line x1="1920" y1="763" x2="-3.05176e-05" y2="763" stroke="#818181" stroke-opacity="0.08" stroke-width="2"/>
<line x1="1920" y1="800" x2="-3.05176e-05" y2="800" stroke="#818181" stroke-opacity="0.05" stroke-width="2"/>
<line x1="1920" y1="837" x2="-3.05176e-05" y2="837" stroke="#818181" stroke-opacity="0.08" stroke-width="2"/>
<line x1="1920" y1="874" x2="-3.05176e-05" y2="874" stroke="#818181" stroke-opacity="0.05" stroke-width="2"/>
<line x1="1920" y1="911" x2="-3.05176e-05" y2="911" stroke="#818181" stroke-opacity="0.08" stroke-width="2"/>
<line x1="1920" y1="948" x2="-3.05176e-05" y2="948" stroke="#818181" stroke-opacity="0.05" stroke-width="2"/>
<line x1="1920" y1="985" x2="-3.05176e-05" y2="985" stroke="#818181" stroke-opacity="0.08" stroke-width="2"/>
<line x1="1920" y1="1022" x2="-3.05176e-05" y2="1022" stroke="#818181" stroke-opacity="0.05" stroke-width="2"/>
<line x1="1920" y1="1059" x2="-3.05176e-05" y2="1059" stroke="#818181" stroke-opacity="0.08" stroke-width="2"/>
<line x1="39.0002" y1="-4.37114e-08" x2="39.0003" y2="1080" stroke="#818181" stroke-opacity="0.08" stroke-width="2"/>
<line x1="76.0002" y1="-4.37114e-08" x2="76.0003" y2="1080" stroke="#818181" stroke-opacity="0.05" stroke-width="2"/>
<line x1="113" y1="-4.37114e-08" x2="113" y2="1080" stroke="#818181" stroke-opacity="0.08" stroke-width="2"/>
<line x1="150" y1="-4.37114e-08" x2="150" y2="1080" stroke="#818181" stroke-opacity="0.05" stroke-width="2"/>
<line x1="187" y1="-4.37114e-08" x2="187" y2="1080" stroke="#818181" stroke-opacity="0.08" stroke-width="2"/>
<line x1="224" y1="-4.37114e-08" x2="224" y2="1080" stroke="#818181" stroke-opacity="0.05" stroke-width="2"/>
<line x1="261" y1="-4.37114e-08" x2="261" y2="1080" stroke="#818181" stroke-opacity="0.08" stroke-width="2"/>
<line x1="298" y1="-4.37114e-08" x2="298" y2="1080" stroke="#818181" stroke-opacity="0.05" stroke-width="2"/>
<line x1="335" y1="-4.37114e-08" x2="335" y2="1080" stroke="#818181" stroke-opacity="0.08" stroke-width="2"/>
<line x1="372" y1="-4.37114e-08" x2="372" y2="1080" stroke="#818181" stroke-opacity="0.05" stroke-width="2"/>
<line x1="409" y1="-4.37114e-08" x2="409" y2="1080" stroke="#818181" stroke-opacity="0.08" stroke-width="2"/>
<line x1="446" y1="-4.37114e-08" x2="446" y2="1080" stroke="#818181" stroke-opacity="0.05" stroke-width="2"/>
<line x1="483" y1="-4.37114e-08" x2="483" y2="1080" stroke="#818181" stroke-opacity="0.08" stroke-width="2"/>
<line x1="520" y1="-4.37114e-08" x2="520" y2="1080" stroke="#818181" stroke-opacity="0.05" stroke-width="2"/>
<line x1="557" y1="-4.37114e-08" x2="557" y2="1080" stroke="#818181" stroke-opacity="0.08" stroke-width="2"/>
<line x1="594" y1="-4.37114e-08" x2="594" y2="1080" stroke="#818181" stroke-opacity="0.05" stroke-width="2"/>
<line x1="631" y1="-4.37114e-08" x2="631" y2="1080" stroke="#818181" stroke-opacity="0.08" stroke-width="2"/>
<line x1="668" y1="-4.37114e-08" x2="668" y2="1080" stroke="#818181" stroke-opacity="0.05" stroke-width="2"/>
<line x1="705" y1="-4.37114e-08" x2="705" y2="1080" stroke="#818181" stroke-opacity="0.08" stroke-width="2"/>
<line x1="742" y1="-4.37114e-08" x2="742" y2="1080" stroke="#818181" stroke-opacity="0.05" stroke-width="2"/>
<line x1="779" y1="-4.37114e-08" x2="779" y2="1080" stroke="#818181" stroke-opacity="0.08" stroke-width="2"/>
<line x1="816" y1="-4.37114e-08" x2="816" y2="1080" stroke="#818181" stroke-opacity="0.05" stroke-width="2"/>
<line x1="853" y1="-4.37114e-08" x2="853" y2="1080" stroke="#818181" stroke-opacity="0.08" stroke-width="2"/>
<line x1="890" y1="-4.37114e-08" x2="890" y2="1080" stroke="#818181" stroke-opacity="0.05" stroke-width="2"/>
<line x1="927" y1="-4.37114e-08" x2="927" y2="1080" stroke="#818181" stroke-opacity="0.08" stroke-width="2"/>
<line x1="964" y1="-4.37114e-08" x2="964" y2="1080" stroke="#818181" stroke-opacity="0.05" stroke-width="2"/>
<line x1="1001" y1="-4.37114e-08" x2="1001" y2="1080" stroke="#818181" stroke-opacity="0.08" stroke-width="2"/>
<line x1="1038" y1="-4.37114e-08" x2="1038" y2="1080" stroke="#818181" stroke-opacity="0.05" stroke-width="2"/>
<line x1="1075" y1="-4.37114e-08" x2="1075" y2="1080" stroke="#818181" stroke-opacity="0.08" stroke-width="2"/>
<line x1="1112" y1="-4.37114e-08" x2="1112" y2="1080" stroke="#818181" stroke-opacity="0.05" stroke-width="2"/>
<line x1="1149" y1="-4.37114e-08" x2="1149" y2="1080" stroke="#818181" stroke-opacity="0.08" stroke-width="2"/>
<line x1="1186" y1="-4.37114e-08" x2="1186" y2="1080" stroke="#818181" stroke-opacity="0.05" stroke-width="2"/>
<line x1="1223" y1="-4.37114e-08" x2="1223" y2="1080" stroke="#818181" stroke-opacity="0.08" stroke-width="2"/>
<line x1="1260" y1="-4.37114e-08" x2="1260" y2="1080" stroke="#818181" stroke-opacity="0.05" stroke-width="2"/>
<line x1="1297" y1="-4.37114e-08" x2="1297" y2="1080" stroke="#818181" stroke-opacity="0.08" stroke-width="2"/>
<line x1="1334" y1="-4.37114e-08" x2="1334" y2="1080" stroke="#818181" stroke-opacity="0.05" stroke-width="2"/>
<line x1="1371" y1="-4.37114e-08" x2="1371" y2="1080" stroke="#818181" stroke-opacity="0.08" stroke-width="2"/>
<line x1="1408" y1="-4.37114e-08" x2="1408" y2="1080" stroke="#818181" stroke-opacity="0.05" stroke-width="2"/>
<line x1="1445" y1="-4.37114e-08" x2="1445" y2="1080" stroke="#818181" stroke-opacity="0.08" stroke-width="2"/>
<line x1="1482" y1="-4.37114e-08" x2="1482" y2="1080" stroke="#818181" stroke-opacity="0.05" stroke-width="2"/>
<line x1="1519" y1="-4.37114e-08" x2="1519" y2="1080" stroke="#818181" stroke-opacity="0.08" stroke-width="2"/>
<line x1="1556" y1="-4.37114e-08" x2="1556" y2="1080" stroke="#818181" stroke-opacity="0.05" stroke-width="2"/>
<line x1="1593" y1="-4.37114e-08" x2="1593" y2="1080" stroke="#818181" stroke-opacity="0.08" stroke-width="2"/>
<line x1="1630" y1="-4.37114e-08" x2="1630" y2="1080" stroke="#818181" stroke-opacity="0.05" stroke-width="2"/>
<line x1="1667" y1="-4.37114e-08" x2="1667" y2="1080" stroke="#818181" stroke-opacity="0.08" stroke-width="2"/>
<line x1="1704" y1="-4.37114e-08" x2="1704" y2="1080" stroke="#818181" stroke-opacity="0.05" stroke-width="2"/>
<line x1="1741" y1="-4.37114e-08" x2="1741" y2="1080" stroke="#818181" stroke-opacity="0.08" stroke-width="2"/>
<line x1="1778" y1="-4.37114e-08" x2="1778" y2="1080" stroke="#818181" stroke-opacity="0.05" stroke-width="2"/>
<line x1="1815" y1="-4.37114e-08" x2="1815" y2="1080" stroke="#818181" stroke-opacity="0.08" stroke-width="2"/>
<line x1="1852" y1="-4.37114e-08" x2="1852" y2="1080" stroke="#818181" stroke-opacity="0.05" stroke-width="2"/>
<line x1="1889" y1="-4.37114e-08" x2="1889" y2="1080" stroke="#818181" stroke-opacity="0.08" stroke-width="2"/>
<defs>
<linearGradient id="paint0_linear_108_117" x1="0.000244141" y1="0" x2="1920" y2="1080" gradientUnits="userSpaceOnUse">
<stop stop-color="#0B1120"/>
<stop offset="0.47448" stop-color="#011E3E"/>
<stop offset="1" stop-color="#2D1124"/>
</linearGradient>
</defs>
</svg>
